<svg xmlns="http://www.w3.org/2000/svg" width="101" height="71" viewBox="0 0 101 71"><rect width="100%" height="100%" fill="#DDDDDD"/><path fill="#999999" d="M24.945 39.805h2.08v1.48h-6.4v-1.48h2.35v-6.74q0-.4.02-.83l-1.66 1.39q-.15.12-.29.14-.14.03-.26.01-.13-.03-.22-.09-.1-.06-.15-.13l-.62-.85 3.53-3h1.62v10.1Zm11.96-4.3q0 1.51-.32 2.62-.33 1.12-.9 1.85-.57.73-1.35 1.08-.78.36-1.68.36-.91 0-1.68-.36-.77-.35-1.34-1.08-.57-.73-.89-1.85-.32-1.11-.32-2.62 0-1.52.32-2.64.32-1.11.89-1.84.57-.72 1.34-1.08.77-.36 1.68-.36.9 0 1.68.36.78.36 1.35 1.08.57.73.9 1.84.32 1.12.32 2.64Zm-2.04 0q0-1.26-.18-2.08-.19-.83-.49-1.32-.31-.48-.71-.68-.4-.2-.83-.2-.43 0-.82.2-.4.2-.7.68-.31.49-.49 1.32-.18.82-.18 2.08 0 1.25.18 2.08.18.82.49 1.31.3.49.7.68.39.2.82.2.43 0 .83-.2.4-.19.71-.68.3-.49.49-1.31.18-.83.18-2.08Zm8.64 4.3h2.08v1.48h-6.4v-1.48h2.35v-6.74q0-.4.02-.83l-1.66 1.39q-.15.12-.29.14-.14.03-.26.01-.13-.03-.22-.09-.1-.06-.15-.13l-.62-.85 3.53-3h1.62v10.1Zm15.39-1.17-1.05 1.03-2.71-2.71-2.74 2.73-1.05-1.03 2.74-2.75-2.61-2.6 1.04-1.04 2.61 2.6 2.59-2.59 1.06 1.04-2.6 2.6 2.72 2.72Zm5.49-8.92h7.99v.86q0 .38-.08.62-.08.23-.16.39l-4.38 9.03q-.14.28-.38.47-.25.2-.67.2h-1.43l4.47-8.84q.15-.27.3-.5.15-.23.33-.44h-5.53q-.19 0-.32-.13-.14-.14-.14-.32v-1.34Zm14.74 10.09h2.08v1.48h-6.4v-1.48h2.34v-6.74q0-.4.03-.83l-1.67 1.39q-.14.12-.28.14-.14.03-.27.01-.12-.03-.22-.09-.09-.06-.14-.13l-.62-.85 3.52-3h1.63v10.1Z"/></svg>