<svg xmlns="http://www.w3.org/2000/svg" width="270" height="56" viewBox="0 0 270 56"><rect width="100%" height="100%" fill="#DDDDDD"/><path fill="#999999" d="M87.95 34.905h5.19q.56 0 .89.31.33.32.33.84v2.07H80.47v-1.15q0-.35.15-.73.14-.39.47-.7l6.14-6.16q.77-.78 1.38-1.49.61-.72 1.02-1.42.4-.7.62-1.42.22-.72.22-1.52 0-.73-.21-1.28t-.6-.93q-.38-.38-.92-.57-.54-.19-1.21-.19-.62 0-1.15.18-.52.17-.93.49-.4.31-.68.73t-.42.93q-.24.64-.62.85-.38.21-1.09.1l-1.82-.32q.21-1.46.81-2.56.6-1.1 1.51-1.83.9-.74 2.07-1.11 1.17-.37 2.51-.37 1.4 0 2.56.42 1.17.41 1.99 1.16.83.76 1.29 1.82.46 1.07.46 2.37 0 1.12-.33 2.07-.33.95-.88 1.82-.55.87-1.29 1.68-.75.81-1.56 1.65l-4.56 4.67q.66-.2 1.31-.31.65-.1 1.24-.1Zm9-17.02h13.98v1.49q0 .68-.14 1.09-.14.41-.28.69l-7.67 15.79q-.24.49-.67.84-.43.34-1.16.34H98.5l7.83-15.47q.26-.48.52-.87.26-.4.58-.77h-9.68q-.33 0-.56-.24-.24-.23-.24-.56v-2.33Zm30.48 10.12q0 2.64-.57 4.6-.57 1.95-1.57 3.22-1 1.28-2.37 1.9-1.36.62-2.94.62-1.58 0-2.94-.62-1.35-.62-2.34-1.9-.99-1.27-1.55-3.22-.56-1.96-.56-4.6 0-2.66.56-4.61.56-1.94 1.55-3.22.99-1.27 2.34-1.89 1.36-.63 2.94-.63 1.58 0 2.94.63 1.37.62 2.37 1.89 1 1.28 1.57 3.22.57 1.95.57 4.61Zm-3.57 0q0-2.2-.33-3.64-.32-1.44-.86-2.3-.54-.85-1.24-1.19-.7-.35-1.45-.35-.74 0-1.44.35-.69.34-1.22 1.19-.53.86-.85 2.3-.31 1.44-.31 3.64t.31 3.64q.32 1.44.85 2.29.53.86 1.22 1.2.7.34 1.44.34.75 0 1.45-.34t1.24-1.2q.54-.85.86-2.29.33-1.44.33-3.64Zm25.8 5.49-1.84 1.8-4.74-4.74-4.79 4.77-1.83-1.81 4.78-4.8-4.56-4.56 1.82-1.82 4.56 4.56 4.54-4.53 1.85 1.82-4.55 4.55 4.76 4.76Zm14.71-12.48-.71 4.22q.67-.14 1.29-.21.61-.06 1.19-.06 1.59 0 2.81.48 1.22.47 2.04 1.31.83.84 1.25 1.97.42 1.13.42 2.43 0 1.61-.57 2.94-.56 1.33-1.57 2.27-1.01.95-2.39 1.47-1.38.51-3 .51-.95 0-1.81-.19-.85-.2-1.6-.53-.75-.33-1.39-.75-.63-.43-1.14-.91l1.07-1.47q.33-.47.88-.47.35 0 .71.22.37.23.83.49.47.27 1.11.49.64.23 1.53.23.96 0 1.68-.31.73-.31 1.21-.86.49-.56.73-1.32.25-.76.25-1.66 0-1.65-.96-2.58-.96-.93-2.84-.93-1.44 0-2.95.53l-2.16-.62 1.68-9.82h10v1.47q0 .74-.46 1.2-.46.46-1.57.46h-5.56Zm23.16-3.13-6.01 7.35-.7.86q.59-.29 1.27-.45.68-.16 1.46-.16 1.15 0 2.23.38 1.09.37 1.92 1.14.82.76 1.33 1.89.5 1.14.5 2.65 0 1.41-.52 2.65t-1.45 2.17q-.94.92-2.27 1.45-1.32.53-2.91.53-1.63 0-2.92-.51-1.28-.52-2.19-1.45-.91-.93-1.4-2.24-.48-1.31-.48-2.91 0-1.43.58-2.93.58-1.51 1.8-3.13l4.83-6.48q.25-.34.74-.58.48-.23 1.11-.23h3.08Zm-5.22 17.64q.82 0 1.51-.28.7-.28 1.2-.79.49-.5.77-1.18.28-.68.28-1.48 0-.87-.26-1.56-.27-.69-.76-1.17-.49-.49-1.18-.74-.68-.25-1.51-.25-.82 0-1.5.28-.67.28-1.14.77-.48.5-.75 1.18-.26.68-.26 1.46 0 .84.23 1.54.23.69.69 1.18.45.49 1.12.76.67.28 1.56.28Z"/></svg>